<svg viewBox="0 0 16.33 16.37" xmlns="http://www.w3.org/2000/svg" xmlns:xlink="http://www.w3.org/1999/xlink" id="Isolation_Mode" overflow="hidden"><defs></defs><path d="M8.32 8.37 8.25 6.15 8.17 6.15 8.08 6.15 8.02 8.37 8.17 8.37 8.32 8.37Z" fill="#D5D0C3"/><path d="M8.17 0 0 0 0 5.52C0 7.83 0.42 9.9 1.24 11.66 1.91 13.08 2.84 14.3 4 15.29 4.52 15.73 5.04 16.08 5.52 16.37L5.9 14.33 2.63 12.36 7.87 14.56C7.97 14.6 8.07 14.62 8.17 14.62 8.27 14.62 8.37 14.6 8.47 14.56L13.71 12.36 10.44 14.33 10.82 16.37C11.3 16.09 11.82 15.73 12.34 15.29 13.51 14.3 14.44 13.08 15.1 11.66 15.93 9.9 16.34 7.84 16.34 5.52L16.34 0 8.17 0ZM10.67 6.06C10.6 5.99 10.53 5.93 10.45 5.86 10.3 5.73 10.03 5.56 10 5.54 10 5.54 10.14 5.38 10.16 5.33 10.07 5.2 9.97 5.09 9.85 4.98 9.51 4.67 9.08 4.45 8.62 4.38 8.62 4.38 8.6 4.38 8.59 4.38L10.21 13.13 8.88 13.42C8.7 13.26 8.4 13.02 8.17 13.02 7.93 13.02 7.64 13.26 7.46 13.42L6.13 13.13 7.75 4.38C7.75 4.38 7.72 4.38 7.72 4.38 7.26 4.46 6.83 4.67 6.49 4.98 6.38 5.09 6.27 5.2 6.18 5.33 6.2 5.38 6.34 5.54 6.34 5.54 6.31 5.56 6.12 5.67 5.98 5.79 5.95 5.82 5.92 5.84 5.88 5.87 5.81 5.93 5.73 6 5.66 6.07 5.61 6.12 5.57 6.17 5.52 6.21 5.52 6 5.57 5.8 5.63 5.61 5.7 5.39 5.8 5.18 5.93 4.99 6.15 4.66 6.43 4.35 6.78 4.15 7.15 3.94 7.39 3.8 7.78 3.63 7.91 3.57 8.04 3.51 8.17 3.44 8.29 3.51 8.42 3.57 8.56 3.63 8.95 3.8 9.19 3.94 9.56 4.15 9.91 4.35 10.19 4.65 10.41 4.99 10.54 5.19 10.64 5.4 10.71 5.61 10.77 5.8 10.81 6 10.82 6.21 10.78 6.16 10.73 6.11 10.68 6.07ZM12.98 3.72C12.56 3.54 12.09 3.44 11.6 3.44 11.57 3.44 11.53 3.44 11.5 3.44 11.28 3.44 11.06 3.47 10.85 3.52 10.85 3.52 10.85 3.52 10.85 3.52 10.64 3.57 10.43 3.63 10.24 3.71 10.5 3.86 10.74 4.03 10.95 4.24 11.23 4.51 11.47 4.83 11.65 5.18 11.69 5.26 11.73 5.33 11.76 5.41 11.79 5.48 11.82 5.55 11.84 5.62 11.87 5.72 11.91 5.82 11.93 5.92 11.89 5.88 11.86 5.84 11.82 5.8 11.79 5.77 11.76 5.74 11.73 5.72 11.64 5.63 11.54 5.55 11.43 5.47 11.18 5.28 10.9 5.13 10.6 5.01 10.58 4.98 10.56 4.95 10.54 4.92 10.28 4.52 9.97 4.22 9.63 4.03L9.53 3.97C9.21 3.79 8.98 3.66 8.62 3.5L8.6 3.5C8.48 3.43 8.36 3.38 8.25 3.32L8.17 3.28 8.09 3.32C7.98 3.38 7.86 3.43 7.74 3.49L7.72 3.49C7.36 3.66 7.13 3.79 6.81 3.97L6.71 4.03C6.37 4.22 6.06 4.52 5.8 4.92 5.78 4.95 5.76 4.98 5.74 5.01 5.44 5.12 5.16 5.28 4.91 5.47 4.81 5.55 4.71 5.63 4.61 5.72 4.58 5.75 4.45 5.88 4.41 5.92 4.44 5.82 4.47 5.72 4.5 5.62 4.53 5.55 4.55 5.48 4.58 5.41 4.61 5.33 4.65 5.25 4.69 5.18 4.87 4.83 5.11 4.51 5.39 4.24 5.6 4.04 5.84 3.86 6.1 3.71 5.9 3.63 5.7 3.56 5.49 3.52 5.49 3.52 5.49 3.52 5.49 3.52 5.28 3.47 5.06 3.45 4.84 3.44 4.81 3.44 4.77 3.44 4.74 3.44 4.25 3.44 3.79 3.54 3.36 3.72 3.34 3.72 3.33 3.73 3.31 3.74 3.32 3.73 3.33 3.71 3.34 3.7 3.62 3.36 3.97 3.08 4.35 2.87 4.83 2.61 5.37 2.46 5.94 2.44 5.97 2.44 6.01 2.44 6.04 2.44 6.31 2.44 6.58 2.47 6.84 2.53 6.45 2.16 5.99 1.88 5.47 1.71 5.24 1.64 5 1.59 4.76 1.56 4.76 1.56 4.8 1.54 4.82 1.54 4.96 1.49 5.11 1.45 5.25 1.42 5.49 1.37 5.75 1.34 6.01 1.34 6.32 1.34 6.62 1.38 6.91 1.45 7.25 1.54 7.57 1.67 7.86 1.85 7.96 1.91 8.07 1.98 8.16 2.06L8.17 2.06C8.17 2.06 8.18 2.06 8.18 2.06 8.28 1.99 8.38 1.92 8.48 1.85 8.77 1.67 9.09 1.53 9.43 1.45 9.72 1.37 10.02 1.34 10.33 1.34 10.59 1.34 10.85 1.37 11.09 1.42 11.24 1.45 11.38 1.49 11.52 1.54 11.53 1.54 11.58 1.56 11.58 1.56 11.33 1.59 11.09 1.64 10.87 1.71 10.35 1.88 9.88 2.16 9.5 2.53 9.76 2.47 10.02 2.44 10.3 2.44 10.33 2.44 10.37 2.44 10.4 2.44 10.98 2.46 11.52 2.61 11.99 2.87 12.38 3.08 12.72 3.36 13 3.7 13.01 3.71 13.02 3.73 13.03 3.74 13.01 3.74 13 3.73 12.98 3.72Z" fill="#D5D0C3"/><path d="M8.17 9.34 7.99 9.34 7.92 11.94 8.17 11.94 8.42 11.94 8.34 9.34 8.17 9.34Z" fill="#D5D0C3"/></svg>